<?xml version="1.0" encoding="UTF-8"?>
<svg version="1.1" viewBox="0 0 2048 1148" width="1312" height="736" xmlns="http://www.w3.org/2000/svg">
<path transform="translate(0)" d="m0 0h2048v1148h-2048z" fill="#ECA87C"/>
<path transform="translate(895)" d="m0 0h1153v1148h-744l2-11 20-70 15-51v-6l-13-10-9-7v-24l-2-2-50-1-1-18v-35l1-1 39-1 2-5v-15l-1-5-41-1v-52l1-1 50-1 2-1v-22l-3-2h-18l-57 1-1 1-1 7-1 121-7-4-10-7-2-5-8-1h-13l-4 2-1 32-3 9-6 5-3 1h-9l-8-4-4-7-1-6v-107l3-7 7-6 10-1 8 3 4 5 2 5 1 33 1 2 3 1h17l4-1v-41l-4-12-8-10-11-7-9-3h-21l-12 4-8 6-7 8-5 12-1 6-1 29-5-2-11-7-3-1v-18l-2-12-5-10-5-6-8-5-6-2-8-1h-55l-11-8-24-15-33-22-15-9-2-1v-2l447-1 3-2v-8l-26-120-17-77-20-92-19-86-14-65-9-41-1-3h-8l-58 17-11 3h-3l-1-57-4-4-9 1-39 9h-4l-9-17-8-10-10-10-14-9-16-7-17-4h-24l-7 2 3 6 8 9 17 1 16 4 16 8 10 8 8 8 8 13-1 3-53 12-5 3-1 3v51l3 11v11l-4 9-5 6-8 5-3 1h-14l-8-4-8-9-3-10 1-10 1-49-5-5-18 4-26 6h-5l5-15 8-15 8-11 9-10 8-7 8-6-3-6-6-6-4 1-9 6-10 9-7 7-10 15-8 16-6 15-3 11-7 3-63 14-17 4-3 4v51l3 10v11l-4 10-7 7-8 4-4 1h-9l-10-4-6-5-5-10-1-9 2-10v-41l-5-5-8 1-10 3h-3l1-6 11-31 31-81 20-52 15-40 12-30 17-45z" fill="#EDBC91"/>
<path transform="translate(1048,165)" d="m0 0h24l17 4 16 7 11 7 10 9 7 7 9 14 4 8v2l47-11 7 1 3 4v57l72-21h6l4 4 14 65 21 95 23 106 26 118 21 97v8l-4 3h-447v2l6 2 27 18 22 14 25 16 5 4h55l11 2 8 4 7 6 6 10 2 7 1 8v11l-1 7 4 1 15 9v-29l3-12 6-10 8-8 10-5 7-2h21l13 5 9 7 7 9 4 12v39l-3 3-2 1h-17l-4-2-1-2-1-33-4-8-5-3-10-1-7 3-5 6-1 4v107l2 9 5 5 5 2h9l6-3 4-6 1-5 1-32 5-3h13l8 1 3 6 15 10 1-120 1-7 2-2 57-1h18l4 3v22l-3 2-50 1-1 52h39l3 3 1 3v15l-2 5-1 1-39 1v53h50l3 3v24l14 11 8 6-1 9-12 41-18 63-7 25h-832l5-12 17-36 12-26 19-40 13-28 8-17-1-4-6-5-6-10-3-11v-117l2-10 6-12 8-8 14-7 13-2 16 2 12 6 7 6 7 11 2 5v4h2l2-6 29-58 10-21 3-4v-10l13-69 18-97 24-128 19-105 4-21 4-4 15-4 30-7 7-2 6 1 4 5v41l-2 13 2 9 5 8 10 6 4 1h9l9-3 9-8 4-10v-11l-3-10v-51l4-5 26-6 54-12 6-2 5-17 9-20 10-16 11-12 7-7 10-7 3-2 4 1 7 7 2 5-11 9-8 7-8 9-10 16-6 13-3 9 8-1 38-9 5 2 3 4-1 49-1 10 3 10 7 8 8 4h14l8-4 6-5 4-8 1-3v-11l-3-11v-51l3-5 8-3 49-11-2-6-8-11-8-8-11-7-12-6-16-4-17-1-10-11-2-5 3-2z" fill="#38374B"/>
<path transform="translate(895)" d="m0 0h735l-2 10-21 73-16 55-43 149-10 35-8 26-13 47-10 34-20 71-19 67-20 70-18 64-20 69-15 53-19 66-3 9-32 1-2 6v12l2 6 1 1 24 1-2 9-13 46-8 30-5-2-15-12-4-3v-24l-2-2-50-1-1-18v-35l1-1 39-1 2-5v-15l-1-5-41-1v-52l1-1 50-1 2-1v-22l-3-2h-18l-57 1-1 1-1 7-1 121-7-4-10-7-2-5-8-1h-13l-4 2-1 32-3 9-6 5-3 1h-9l-8-4-4-7-1-6v-107l3-7 7-6 10-1 8 3 4 5 2 5 1 33 1 2 3 1h17l4-1v-41l-4-12-8-10-11-7-9-3h-21l-12 4-8 6-7 8-5 12-1 6-1 29-5-2-11-7-3-1v-18l-2-12-5-10-5-6-8-5-6-2-8-1h-55l-11-8-24-15-33-22-15-9-2-1v-2l447-1 3-2v-8l-26-120-17-77-20-92-19-86-14-65-9-41-1-3h-8l-58 17-11 3h-3l-1-57-4-4-9 1-39 9h-4l-9-17-8-10-10-10-14-9-16-7-17-4h-24l-7 2 3 6 8 9 17 1 16 4 16 8 10 8 8 8 8 13-1 3-53 12-5 3-1 3v51l3 11v11l-4 9-5 6-8 5-3 1h-14l-8-4-8-9-3-10 1-10 1-49-5-5-18 4-26 6h-5l5-15 8-15 8-11 9-10 8-7 8-6-3-6-6-6-4 1-9 6-10 9-7 7-10 15-8 16-6 15-3 11-7 3-63 14-17 4-3 4v51l3 10v11l-4 10-7 7-8 4-4 1h-9l-10-4-6-5-5-10-1-9 2-10v-41l-5-5-8 1-10 3h-3l1-6 11-31 31-81 20-52 15-40 12-30 17-45z" fill="#D3D4D4"/>
<path transform="translate(664,747)" d="m0 0 2 1 273 1v2l6 2 27 18 22 14 25 16 5 4h55l11 2 8 4 7 6 6 10 2 7 1 8v11l-1 7 4 1 15 9v-29l3-12 6-10 8-8 10-5 7-2h21l13 5 9 7 7 9 4 12v39l-3 3-2 1h-17l-4-2-1-2-1-33-4-8-5-3-10-1-7 3-5 6-1 4v107l2 9 5 5 5 2h9l6-3 4-6 1-5 1-32 5-3h13l8 1 3 6 15 10 1-120 1-7 2-2 57-1h18l4 3v22l-3 2-50 1-1 52h39l3 3 1 3v15l-2 5-1 1-39 1v53h50l3 3v24l14 11 8 6-1 9-12 41-18 63-7 25h-832l5-12 17-36 12-26 19-40 13-28 8-17-1-4-6-5-6-10-3-11v-117l2-10 6-12 8-8 14-7 13-2 16 2 12 6 7 6 7 11 2 5v4h2l2-6 29-58 10-21z" fill="#6880DD"/>
<path transform="translate(0)" d="m0 0h507l15 14 8 8 8 7 28 28 8 7 14 14 8 7 19 19 8 7 14 14 10 30 18 57 16 49 15 47 3 8-1 5-25 14-22 13-24 14-26 15-22 13-26 15-24 14-26 15-22 13-29 17-26 15-22 12-34-12-65-23-56-20-166-59-36-13-46-16-1-1z" fill="#E66E63"/>
<path transform="translate(667,706)" d="m0 0h2l-1 11-4 21v10l-6 10-20 41-19 38h-2l-4-11-7-10-10-7-11-4-12-1-13 2-14 7-7 7-6 12-2 10v117l4 13 6 9 6 5-1 5-19 40-13 28-18 38-12 26-11 24-1 1h-472v-310l10 3 40 15 133 49 100 37 34 13 14 5 1 30 3 2h74l3-2 1-23 8-16 4-9h1l2 19 4 12 7 9 8 6 9 4 4 1h20l10-3 10-6 7-8 5-11 1-4v-42l-2-1h-23l-1 36-2 7-7 6-3 1h-9l-6-3-5-6-2-8v-106l3-8 7-6 4-1h7l7 3 5 6 1 3v31l3 5 17 1 6-2 1-4-1-37-4-11-7-9-8-6-9-4-4-1-17-1 6-31 1-3 18-6 29-9 54-18 50-16z" fill="#D4D4D4"/>
<path transform="translate(934)" d="m0 0h696l-2 10-21 73-16 55-43 149-10 35-1 2-6-2-32-17-46-25-25-13-22-12-30-16-22-12-25-13-22-12-32-17-22-12-23-12-22-12-23-12-23-13-31-16-22-12-28-15-24-13-22-12-54-29-27-14-19-11z" fill="#6880DD"/>
<path transform="translate(1264,278)" d="m0 0h4l3 9 10 45 17 79 17 77 17 78 13 59 18 84v4l-5-1-36-15-32-14-47-20-29-12-24-10 1-9 10-51 17-94 15-87 17-102 2-15 1-2z" fill="#6880DE"/>
<path transform="translate(1085,618)" d="m0 0h7l-4 19-12 56-8 35-8 1h-374l1-9 10-48 2-5 44-6 255-32z" fill="#72C3AC"/>
<path transform="translate(1183,266)" d="m0 0h2l2 165 1 110 1 70v29l-12 9-42 32-16 12-19 14-8 6 2-12 14-66 9-42 16-77 21-103 25-127z" fill="#E66E63"/>
<path transform="translate(930,345)" d="m0 0 11 1 9 4 8 6 6 9 3 10v11l-4 11-7 11-7 7-5 7 3 23 17 1 91 8 19 2 7 4 4 5 2 5-1 10-4 6-5 4-13 4-47 12-57 15-133 35h-8l-6-3-6-7-1-3v-11l3-6 8-7 32-19 26-16 32-19 21-13 5-3h2l-3-20v-11l5-8 10-11 6-10 1-3v-11l-5-10-10-6h-12l-8 4-6 7-4 8-5 4-9 1-1-4 11-20 7-7 12-6z" fill="#CED1D4"/>
<path transform="translate(639,805)" d="m0 0h35l3 4 5 25 17 89h1l20-110 3-7 1-1h34l3 4v181l-4 3h-19l-3-1-1-2-1-116-8 42-14 72-2 4-3 1h-15l-3-1-3-12-6-33-13-62-2-11v115l-4 4h-19l-4-2-1-9 1-176z" fill="#38374B"/>
<path transform="translate(785,805)" d="m0 0h32l4 4 14 71 8 43h1l8-45 13-69 2-3 27-1 8 1 2 2 1 131v48l-2 5-2 1h-20l-4-3v-115l-18 92-4 22-2 3-3 1h-14l-4-2-4-16-7-37-12-64-1 116-4 3h-18l-4-2-1-2v-179l1-3z" fill="#38374B"/>
<path transform="translate(573,803)" d="m0 0 16 2 12 6 7 6 7 11 3 9 1 9v107l-3 15-5 10-8 8-12 6-7 2h-19l-13-4-6-4-7-6-6-10-3-11v-117l2-10 6-12 8-8 14-7z" fill="#38374B"/>
<path transform="translate(1031,805)" d="m0 0h48l11 2 8 4 7 6 6 10 2 7 1 8v34l-3 16-6 10-8 7 4 17 17 58v7l-3 2h-21l-4-3-13-46-8-27-17-1v74l-4 3h-21l-2-2-1-4v-180z" fill="#38374B"/>
<path transform="translate(1342,1012)" d="m0 0 7 6 10 9 8 7 30 27 8 7 12 11 10 9 8 7 20 18 8 7 10 9 11 9 9 9v1h-189l2-11 20-70z" fill="#D5D5D5"/>
<path transform="translate(1526,805)" d="m0 0h51l12 3 9 6 8 9 4 10 1 6v50l-4 13-7 10-9 7-11 4-30 1v65l-4 4h-20l-4-4v-181z" fill="#38374B"/>
<path transform="translate(1441,805)" d="m0 0h31l5 5 8 45 14 79 9 49v7l-4 3h-19l-4-3-5-25-1-11h-38l-2 16-4 20-3 3h-21l-4-3 1-10 11-55 22-115z" fill="#38374B"/>
<path transform="translate(1631,805)" d="m0 0h51l9 2 8 4 9 8 6 12 1 4 1 48-2 13-4 9-7 9-9 6-9 3-22 1-8 1v63l-2 4-2 1h-20l-4-3v-182z" fill="#38374B"/>
<path transform="translate(939,131)" d="m0 0h21l17 3 14 5 15 8 9 7 8 7 11 14 9 16 6 16 3 14 1 9 1 75 1 4v7l-3 5-3 3-9 1-6-4-2-4v-90l-4-17-5-12-8-14-11-12-14-9-10-5-13-4-8-1h-18l-17 3-15 6-11 6-14 11-11 12-7 10-10 17-8 21-5 21-1 6v85l1 3v8l-4 6-6 3-7-1-5-4-2-4v-7l1-3 1-88 4-22 6-20 12-25 10-15 9-11 10-10 13-10 15-9 18-7 13-3z" fill="#38374B"/>
<path transform="translate(1166,804)" d="m0 0h21l13 5 9 7 7 9 4 12v39l-3 3-2 1h-17l-4-2-1-2-1-33-4-8-5-3-10-1-7 3-5 6-1 4v107l2 9 5 5 5 2h9l6-3 4-6 1-5 1-32 5-3h13l8 1 2 4v34l-3 12-6 10-7 7-14 7-10 2h-9l-14-3-8-4-9-8-6-10-3-11v-118l3-12 6-10 8-8 10-5z" fill="#38374B"/>
<path transform="translate(460,804)" d="m0 0h21l11 4 9 6 7 8 5 10 1 4 1 37-2 5-6 2-17-1-3-3-1-6v-28l-3-6-5-4-4-1h-7l-7 3-4 5-2 6v106l3 10 6 5 3 1h9l6-3 4-5 1-5 1-34 3-3h21l3 2v42l-4 11-6 9-8 7-11 5-5 1h-20l-11-4-9-6-7-8-4-8-3-13v-114l2-9 5-10 8-9 10-6z" fill="#38374B"/>
<path transform="translate(336,805)" d="m0 0h73l4 3v21l-3 3-50 1-1 52h38l4 3 1 3v15l-2 5-5 2-36 1v51l52 1 2 2v22l-4 3h-74l-4-3v-182z" fill="#38374B"/>
<path transform="translate(930,805)" d="m0 0h65l12 1 1 1 1 9v11l-3 5-53 1v52h38l5 3 1 2v18l-2 4-42 1v53h52l2 2v23l-3 2h-76l-3-4v-181z" fill="#38374B"/>
<path transform="translate(1298,805)" d="m0 0h18l4 3v22l-3 2-50 1-1 52h39l3 3 1 3v15l-2 5-1 1-39 1v53h50l3 3v21l-1 2-4 1h-73l-3-3-1-4v-171l1-7 2-2z" fill="#38374B"/>
<path transform="translate(942,457)" d="m0 0h14l103 9 11 1 5 5-1 6-7 3-74 19-48 13-88 23-32 8-6-1-2-6 3-6 28-17 25-15 24-15 22-13z" fill="#38374B"/>
<path transform="translate(1191,663)" d="m0 0 5 1 33 14 37 16 38 16 30 13 10 4v2h-228l-10-1 5-5 19-14 38-29 13-10z" fill="#E66E63"/>
<path transform="translate(572,830)" d="m0 0 8 1 5 3 4 5 2 6v108l-3 9-6 5-3 1h-8l-8-4-4-5-1-2v-116l3-5 4-4z" fill="#D2D3D5"/>
<path transform="translate(1159,844)" d="m0 0h1v43l5 2 20 12 24 16v1l-11 1-4 2-1 32-3 9-6 5-3 1h-9l-8-4-4-7-1-6z" fill="#6880DD"/>
<path transform="translate(1550,832)" d="m0 0h24l6 3 3 4v49l-4 6-8 3h-21z" fill="#EDBB90"/>
<path transform="translate(1655,832)" d="m0 0h24l5 3 3 3 1 3v46l-4 7-6 3h-22l-1-1z" fill="#EDBC91"/>
<path transform="translate(1052,832)" d="m0 0h25l6 3 3 6v38l-3 7-4 3-3 1h-23l-1-1z" fill="#6880DD"/>
<path transform="translate(1341,898)" d="m0 0h48l3 6-1 17-4 4h-45l-3-3-1-5v-12l2-6z" fill="#38374B"/>
<path transform="translate(1456,848)" d="m0 0 2 2 12 72v6h-14l-14-1 2-14 11-61z" fill="#EDB98F"/>
<path transform="translate(589,900)" d="m0 0h2v53l-3 9-6 5-3 1h-8l-8-4-2-3 7-14 13-29z" fill="#6880DD"/>
<path transform="translate(468,780)" d="m0 0 1 4-4 19-9 3-12 6-4 3h-2l-4-20v-5l30-9z" fill="#EDBC91"/>
<path transform="translate(463,831)" d="m0 0 2 1-4 5-3 20-3 18-2 2v-32l3-8z" fill="#EBA27C"/>
<path transform="translate(1065,833)" d="m0 0h15l5 5v7l-10-5-10-6z" fill="#D2D4D3"/>
<path transform="translate(1267,956)" d="m0 0 11 6 3 2 5 1v1h-19z" fill="#6883DB"/>
<path transform="translate(359,961)" d="m0 0 7 1 4 2v2h-11z" fill="#EBBF99"/>
</svg>
