<?xml version="1.0" encoding="UTF-8"?>
<svg version="1.1" viewBox="0 0 2048 1397" width="712" height="486" xmlns="http://www.w3.org/2000/svg">
<path transform="translate(99,74)" d="m0 0h1845l12 1 8 4 7 8 2 5 1 81v1075l-1 56-3 8-7 7-9 3-24 1h-1804l-33-1-10-5-6-7-2-5-1-10v-1197l2-9 4-6 7-6 5-2z" fill="#FCEAD5"/>
<path transform="translate(542,546)" d="m0 0h10l18 3 17 5 17 8 15 10 16 13 8 8 11 15 8 13 3 9 1 6v29l-6 29-8 16-9 10-7 6-4 1v3l4 2 7 10-1 4-1 5 2 3 4-1h3l7 7 7 8 12 13 11 13 5 8-2 5-4 5-12 8 1 9-2 2-5-1-3-2h-2v2l-11 8-3 1h-8l-10-9-8-7-14-14-14-16 3-3-1-4-5-1-2 3-4-2-5-6-6-7 1-5 2-1-1-4-7-9-7-8h-13l-26-3-18-5-16-7-10-7-9-9-4-10-2-19v-10l-2-7-14-9-14-10-12-10-8-7-10-10-2-4v-8l3-7 3-3 9 1 23 11 13 7 10 7 14 8 3 1 2-4 3-3-1-10v-16l2-9 7-10 8-11 3-6 6-7 5-5 7-5 10-3z"/>
<path transform="translate(515,567)" d="m0 0 2 1v11l5 17 9 19 9 16 22 33 7 10 18 24 9 11 11 14 10 12 1 3-8 5-14 11-8 6-4-1-11-13-11-14-6-7-6-8-8-11-9-12-8-11-13-20-9-15-6-13-4-13-1-4v-12l2-8 6-9 8-11z" fill="#F9E7D3"/>
<path transform="translate(916,653)" d="m0 0h10l10 2 9 6 6 7 4 10 2 12-1 18-4 11-5 8-9 6-15 3-14-2-6-4-8-7-5-10-2-9v-19l3-11 3-7 9-9 9-4z"/>
<path transform="translate(542,553)" d="m0 0 25 3 20 6 17 9 11 8 14 11 1 3 4 2 9 11 7 10 7 14 1 3v15l-4 11-5 10-2-4v-11l-1-13-4-8-7-7-5-4-11-5-21-7-16-9-17-8-22-8-6-2-12-2-2-3v-10l1-7 6-5z" fill="#F8E6D2"/>
<path transform="translate(1078,654)" d="m0 0h9l8 1 8 33 2 11v5h2l1-7 5-23 5-19 9-1h12l3 1 2 15 4 52v11l-5 2-12-1-1-6-2-40-1-10-7 29-4 15-3 1h-14l-3-3-7-29-3-14-1 1-2 45-1 10-4 2-14-1 5-66 1-13z"/>
<path transform="translate(987,653)" d="m0 0 11 2 5 19 6 26v3h2v-7l7-30 3-11 8-1h11l5 2 1 1 5 65v12h-17l-1-8-1-20v-29h-2l-2 11-4 16-5 18-11 1h-6l-3-2-9-38-2-8-2 43-1 15-1 1h-15l-1-1 1-24 4-49 1-6h10z"/>
<path transform="translate(1243,654)" d="m0 0h21l12 4 7 6 3 6 1 15-4 8-8 7v2l5 5 3 6 4 10 3 5v3l-7 4h-7l-6-4-5-13-4-9-5-3-7-1v29l-10 1-8-1v-79z"/>
<path transform="translate(1948,75)" d="m0 0h8l8 4 7 8 2 5 1 81v1075l-1 56-3 8-7 7-6 2v-2l5-2 2-4 4-6 2-4 1-32v-255l-1-902-1-17-3-10-4-5-12-5z" fill="#D8D4D0"/>
<path transform="translate(1526,654)" d="m0 0h17l12 4 8 6 4 8 1 10-2 11-4 7-7 6-6 2-7 1h-12v25l-4 1-14-1-1-42v-23l1-14z"/>
<path transform="translate(1464,654)" d="m0 0h10l4 4 12 36 11 35v4l-5 2-11-1-5-8-2-8h-26l-4 14-3 3-14-1 1-9 14-42 9-28z"/>
<path transform="translate(558,615)" d="m0 0h20l15 2 17 4 12 5 6 3 2 4 4 2 4 5 2 10-4 11-4 5-7 4-5-3-8-5-9-4-13-4-9-2h-19l-15-23-5-9v-3z" fill="#F8E6D2"/>
<path transform="translate(1591,654)" d="m0 0h21l10 3 9 6 4 8 1 4v13l-4 10-8 7-7 3-6 1h-12v25h-18v-79z"/>
<path transform="translate(1164,655)" d="m0 0h50l1 9-1 6-31 1-1 16h26v14l-1 1h-25l1 17 10-1 25 1-1 7-3 5-5 3h-39l-5-4-1-2-1-39v-19z"/>
<path transform="translate(1372,655)" d="m0 0h49l1 1v12l-1 2-31 1-1 16h26l1 8-2 7h-25l1 17 9-1 26 1-1 10-4 4-2 1h-40l-6-4-1-3v-68z"/>
<path transform="translate(757,655)" d="m0 0h51v9l-2 6h-31v17h25l2 3-1 11-1 1h-22l-3-1v18h35l1 3-3 9-6 3h-40l-4-5-1-2z"/>
<path transform="translate(1324,653)" d="m0 0h8l3 1 7 1 10 6 6 7 1 5v9l-6 5h-8l-4-3-1-9-5-5-6-2-4 1-6 5-2 5-1 10v14l3 10 8 5 6 1 11-4 5-3 5 2 3 3 1 8-12 7-10 3-11 1-12-3-9-7-4-7-3-10-1-9v-14l4-16 7-8 7-6 9-2z"/>
<path transform="translate(846,653)" d="m0 0h8l10 2 9 5 6 7 2 10-2 7-5 3h-9l-2-5-3-9-4-4-7-1-6 4-4 7-1 5v22l5 9 4 3 9 1 11-4 5-3 4 2 5 8-2 4-14 7-12 3-11-1-9-3-8-8-5-10-2-11v-19l4-13 7-10 7-5 9-2z"/>
<path transform="translate(473,681)" d="m0 0 5 3 8 6 13 6 13 4 20 4 8 11 7 9 8 10v4h-11l-26-4-16-6-15-8-11-11-2-8-1-16z" fill="#F7E5D1"/>
<path transform="translate(411,609)" d="m0 0 6 1 21 10 11 6 9 6v2l6 2 16 9 6 3 1 2 5 1 8 5 6 10 9 14v2l-6-1-15-6-6-3-5-1-6-4-5-2-6-3-10-7-5-3-3-2v-2l-5-2-7-5v-2l-5-2-12-11-8-8z" fill="#F6E4D0"/>
<path transform="translate(918,667)" d="m0 0h8l6 4 4 7 2 12-1 17-6 12-2 2-6 1-8-2-5-6-3-9v-21l4-11z" fill="#F7E6D1"/>
<path transform="translate(655,670)" d="m0 0h1l-1 12-5 17-7 10-10 10-12 6-4-1-9-10-8-11 2-2 16-4 14-6 13-10 5-5z" fill="#F5E4D0"/>
<path transform="translate(648,762)" d="m0 0 3 3 7 8 11 12 7 8 7 9-2 4-14 10-7-6-9-11-12-13-7-9v-3l11-8z" fill="#F7E5D1"/>
<path transform="translate(624,781)" d="m0 0 4 2 9 11 9 9 8 10 6 7v2l-10 8-5 2-11-9-21-21-6-7 1-3 6-4 5-4z" fill="#F7E5D1"/>
<path transform="translate(569,659)" d="m0 0h13l23 7 9 5v3l-11 3-21 2-8-10-5-7z" fill="#F1E0CC"/>
<path transform="translate(529,589)" d="m0 0 14 3 16 6 5 3 9 3 5 4-36 2-6 1-7-16-1-5z" fill="#EFDECB"/>
<path transform="translate(1531,668)" d="m0 0h9l6 3 3 6v10l-6 7-3 1h-10v-26z" fill="#F3E2CE"/>
<path transform="translate(1600,668)" d="m0 0h9l6 3 3 8v7l-3 6-5 3-10 1-1-1v-26z" fill="#F3E2CE"/>
<path transform="translate(637,670)" d="m0 0h2l1 4-3 5-10 7-15 6-13 3h-5l-6-7 1-3 19-2 13-4 14-7z" fill="#EDDCC9"/>
<path transform="translate(1250,668)" d="m0 0h12l5 4 2 8-2 6-5 4-3 1h-10v-22z" fill="#F2E1CD"/>
<path transform="translate(1972,1112)" d="m0 0h1l1 111v25l-1 56-3 8-7 7-6 2v-2l5-2 2-4 4-6 2-4 1-32v-158z" fill="#EDEDED"/>
<path transform="translate(627,738)" d="m0 0 4 1 2 4-10 8-17 13-15 12-4-1-1-4 13-11 11-8 10-8z" fill="#EBDBC7"/>
<path transform="translate(632,753)" d="m0 0 2 1 3 5v3l-16 12-11 8-5 3-4-8 10-8 13-10z" fill="#EEDECA"/>
<path transform="translate(1465,672)" d="m0 0 2 2 6 23v5l-1 1h-15l-1-2 4-12 4-16z" fill="#F0E0CD"/>
<path transform="translate(1972,1271)" d="m0 0h1v33l-3 8-7 7-6 2v-2l5-2 2-4 4-6 2-4 1-31z" fill="#F0F0F0"/>
<path transform="translate(492,682)" d="m0 0 5 2 25 9v1l-9-1-18-6-3-2z" fill="#C3B7A7"/>
<path transform="translate(492,682)" d="m0 0 5 2 7 3 1 2-8-1-5-3z" fill="#DACBBA"/>
<path transform="translate(1465,672)" d="m0 0 2 2 1 7-6 2 2-10z" fill="#DAD4CE"/>
<path transform="translate(1085,676)" d="m0 0 2 1v10h-1l-1 7h-1v-16z" fill="#C6BFB6"/>
</svg>
