<?xml version="1.0" encoding="utf-8"?>
<svg width="15" height="14.492" viewBox="0 0 15 14.492" fill="none" xmlns="http://www.w3.org/2000/svg">
  <g id="Grupo">
    <path id="Forma" d="M11.266 4.76837e-07C10.2672 0.00252223 9.32578 0.466963 8.716 1.258C8.08297 1.0666 7.42533 0.968892 6.764 0.968C3.034 0.969 0 4.002 0 7.73C0 9.537 0.703 11.236 1.98 12.514C3.24684 13.7853 4.96928 14.4974 6.764 14.492C10.493 14.492 13.527 11.459 13.527 7.73C13.527 7.076 13.419 6.436 13.237 5.816C14.04 5.20681 14.513 4.25794 14.516 3.25C14.5137 1.45578 13.0598 0.00208974 11.2658 0C11.2658 0 11.266 4.76837e-07 11.266 4.76837e-07ZM11.266 0.5C12.7843 0.501104 14.0149 1.73167 14.016 3.25C14.0149 4.76823 12.7844 5.99884 11.2661 6C9.74777 5.9989 8.5172 4.76833 8.5161 3.25C8.51715 1.73177 9.74767 0.501158 11.266 0.5C11.266 0.5 11.266 0.5 11.266 0.5ZM6.764 1.467C7.329 1.467 7.886 1.553 8.426 1.701C8.174 2.163 8.016 2.687 8.016 3.25C8.01814 5.04391 9.47188 6.49774 11.2659 6.5C11.8209 6.5 12.3339 6.347 12.7909 6.102C12.9339 6.632 13.0249 7.174 13.0249 7.73C13.0255 9.40711 12.3514 11.0134 11.1545 12.1874C10.3809 11.1677 9.2811 10.4441 8.0385 10.1374C8.91943 9.65468 9.46694 8.72991 9.4665 7.72539C9.46437 6.99559 9.17196 6.29666 8.65377 5.7828C8.13558 5.26894 7.43422 4.98239 6.70446 4.98639C5.97487 4.98877 5.27619 5.2813 4.76254 5.79945C4.24889 6.3176 3.96248 7.0188 3.96646 7.74839C3.96646 8.77839 4.54546 9.66839 5.38846 10.1354C4.16697 10.4352 3.08202 11.1376 2.30846 12.1294C1.14668 10.9604 0.496257 9.37812 0.5 7.73C0.503775 4.2724 3.3061 1.47039 6.76385 1.467C6.76385 1.467 6.764 1.467 6.764 1.467ZM6.73 5.486C7.32707 5.48811 7.89873 5.72788 8.31867 6.15232C8.7386 6.57676 8.97226 7.15094 8.968 7.748C8.968 8.96 7.998 9.945 6.794 9.98C6.766 9.98 6.737 9.975 6.708 9.975C6.683 9.975 6.661 9.977 6.636 9.978C5.42272 9.93743 4.46191 8.93894 4.468 7.725C4.46987 7.12768 4.70954 6.55577 5.13402 6.13563C5.55851 5.71549 6.13285 5.48172 6.73008 5.486C6.73008 5.486 6.73 5.486 6.73 5.486ZM6.636 10.479C6.66 10.479 6.682 10.486 6.706 10.486C6.706 10.486 6.73 10.486 6.73 10.486C6.752 10.486 6.77 10.48 6.792 10.479C8.36764 10.5063 9.8418 11.2618 10.784 12.525C9.65942 13.4736 8.23524 13.9933 6.764 13.992C5.26211 13.9944 3.81019 13.4527 2.677 12.467C3.62512 11.2361 5.08247 10.5043 6.636 10.479C6.636 10.479 6.636 10.479 6.636 10.479Z" fill="#231F20" />
    <g fill="#F10909" fill-rule="evenodd" transform="translate(8 0)">
      <path id="Óvalo" d="M0 3.5C0 1.567 1.567 0 3.5 0C5.433 0 7 1.567 7 3.5C7 5.433 5.433 7 3.5 7C1.567 7 0 5.433 0 3.5Z" />
      <path d="M3.5 0C1.567 0 0 1.567 0 3.5C0 5.433 1.567 7 3.5 7C5.433 7 7 5.433 7 3.5C7 1.567 5.433 0 3.5 0ZM3.5 6Q1 6 1 3.5Q1 2.46447 1.73223 1.73223Q2.46447 1 3.5 1Q6 1 6 3.5Q6 6 3.5 6Z" fill="#231F20" fill-rule="evenodd" />
    </g>
  </g>
</svg>
